<?xml version="1.0" encoding="UTF-8"?>
<svg xmlns="http://www.w3.org/2000/svg" xmlns:xlink="http://www.w3.org/1999/xlink" width="64pt" height="52pt" viewBox="0 0 64 52" version="1.1">
<g id="surface1">
<path style=" stroke:none;fill-rule:evenodd;fill:rgb(0%,0%,0%);fill-opacity:1;" d="M 42.3125 45.300781 C 35.636719 44.964844 25.8125 46.148438 22.515625 41.9375 C 21.007812 33.929688 16.691406 29.894531 9.277344 29.8125 C 4.730469 20.957031 12.988281 19.570312 18.632812 17.292969 C 18.992188 21.410156 18.773438 25.6875 25.234375 28.089844 C 25.492188 26.816406 26.023438 25.777344 27.71875 25.742188 L 37.269531 25.78125 L 44.023438 20.464844 C 45.113281 22.210938 47.28125 24.453125 47.28125 25.703125 L 57.53125 25.742188 C 58.277344 26.382812 58.910156 28.085938 57.414062 29.773438 C 51.277344 29.585938 40.117188 30.261719 42.3125 45.300781 Z M 42.3125 45.300781 "/>
<path style=" stroke:none;fill-rule:evenodd;fill:rgb(0%,0%,0%);fill-opacity:1;" d="M 25.65625 11.441406 L 25.683594 7.796875 L 29.738281 7.242188 L 29.738281 4.347656 L 25.601562 5.039062 C 25.90625 2.433594 27.570312 0.546875 31.234375 0 C 33.535156 0.164062 35.949219 0.289062 37.324219 4.628906 C 37.726562 6.347656 37.472656 8.089844 36.414062 9.589844 C 32.980469 7.691406 30.410156 8.988281 28.066406 11.113281 Z M 25.65625 11.441406 "/>
<path style=" stroke:none;fill-rule:evenodd;fill:rgb(0%,0%,0%);fill-opacity:1;" d="M 18.59375 19.328125 L 30.667969 10.136719 C 32.292969 9.265625 34.082031 9.097656 36.21875 10.410156 C 38.046875 12.082031 41.136719 16.71875 43.59375 19.875 L 36.722656 25.058594 L 30.125 15.808594 L 19.683594 23.867188 C 18.878906 22.453125 18.691406 20.792969 18.59375 19.328125 Z M 18.59375 19.328125 "/>
<path style="fill:none;stroke-width:34.999683;stroke-linecap:round;stroke-linejoin:round;stroke:rgb(0%,0%,0%);stroke-opacity:1;stroke-miterlimit:4;" d="M 241.685251 414.190734 C 241.722953 460.39806 204.284625 497.812899 158.099378 497.812899 C 111.91413 497.812899 74.475803 460.39806 74.475803 414.190734 C 74.475803 368.020824 111.91413 330.56857 158.099378 330.56857 C 204.284625 330.56857 241.722953 368.020824 241.685251 414.190734 Z M 241.685251 414.190734 " transform="matrix(0.103608,0,0,0.104404,-5.903781,-1.758697)"/>
<path style="fill:none;stroke-width:34.999683;stroke-linecap:round;stroke-linejoin:round;stroke:rgb(0%,0%,0%);stroke-opacity:1;stroke-miterlimit:4;" d="M 241.716452 414.189491 C 241.716452 460.396817 204.278125 497.811655 158.092877 497.811655 C 111.90763 497.811655 74.469302 460.396817 74.469302 414.189491 C 74.469302 368.01958 111.90763 330.567327 158.092877 330.567327 C 204.278125 330.567327 241.716452 368.01958 241.716452 414.189491 Z M 241.716452 414.189491 " transform="matrix(0.103608,0,0,0.104404,37.050017,-1.746848)"/>
</g>
</svg>
